<?xml version="1.0" encoding="UTF-8" standalone="no"?>
<!-- Created with Inkscape (http://www.inkscape.org/) -->

<svg
   xmlns:dc="http://purl.org/dc/elements/1.1/"
   xmlns:cc="http://creativecommons.org/ns#"
   xmlns:rdf="http://www.w3.org/1999/02/22-rdf-syntax-ns#"
   xmlns:svg="http://www.w3.org/2000/svg"
   xmlns="http://www.w3.org/2000/svg"
   xmlns:sodipodi="http://sodipodi.sourceforge.net/DTD/sodipodi-0.dtd"
   xmlns:inkscape="http://www.inkscape.org/namespaces/inkscape"
   width="41"
   height="41"
   viewBox="0 -41 41 41"
   version="1.1"
   id="svg8"
   inkscape:version="0.92.3 (2405546, 2018-03-11)"
   sodipodi:docname="logo.svg">
  <defs
     id="defs2" />
  <sodipodi:namedview
     id="base"
     pagecolor="#ffffff"
     bordercolor="#666666"
     borderopacity="1.0"
     inkscape:pageopacity="0.0"
     inkscape:pageshadow="2"
     inkscape:zoom="5.6"
     inkscape:cx="12.214146"
     inkscape:cy="-6.6789416"
     inkscape:document-units="mm"
     inkscape:current-layer="svg8"
     showgrid="false"
     inkscape:window-width="1366"
     inkscape:window-height="705"
     inkscape:window-x="-8"
     inkscape:window-y="-8"
     inkscape:window-maximized="1"
     units="px"
     scale-x="0.19524"
     fit-margin-top="0"
     fit-margin-left="0"
     fit-margin-right="0"
     fit-margin-bottom="0"
     inkscape:pagecheckerboard="true"
     viewbox-x="0" />
  <path
     d="M 20.501,0 C 9.197,0 0,-9.197 0,-20.500999 c 0,-11.304 9.197,-20.501 20.501,-20.501 11.304,0 20.501,9.197 20.501,20.501 C 41.002,-9.197 31.805,0 20.501,0 Z m 0,-37.834999 c -9.558,0 -17.334,7.776 -17.334,17.334 0,9.557999 7.776,17.333999 17.334,17.333999 9.558,0 17.334,-7.776 17.334,-17.333999 0,-9.558 -7.776,-17.334 -17.334,-17.334 z m 0,25.222999 c -4.35,0 -7.889,-3.539 -7.889,-7.888999 0,-4.35 3.539,-7.889 7.889,-7.889 4.35,0 7.889,3.539 7.889,7.889 0,4.349999 -3.539,7.888999 -7.889,7.888999 z m 0,-12.611 c -2.604,0 -4.723,2.118 -4.723,4.722001 0,2.603999 2.119,4.722 4.723,4.722 2.604,0 4.722,-2.118 4.722,-4.722 0,-2.604 -2.118,-4.722001 -4.722,-4.722001 z"
     id="path3714"
     inkscape:connector-curvature="0"
     style="fill:#ffffff;fill-rule:evenodd"
     width="41px"
     height="41px" />
  <metadata
     id="metadata3722">
    <rdf:RDF>
      <cc:Work
         rdf:about="">
        <dc:title></dc:title>
      </cc:Work>
    </rdf:RDF>
  </metadata>
</svg>
